<svg xmlns="http://www.w3.org/2000/svg" viewBox="-1 -1 62 26" role="img" aria-label="BD Biosciences logo">
  <style>.bd{fill:#00539B;}</style>
  <g>
    <path class="bd" d="M37.397,20.625h-6.399c-0.777,0-1.373-0.622-1.373-1.399V4.747c0-0.777,0.596-1.372,1.373-1.372h5.984c3.289,0,5.257,1.913,5.257,4.4c0,2.513-1.536,3.409-2.071,3.603c0.831,0.209,3.083,1.162,3.083,4.307C43.25,18.379,41.076,20.625,37.397,20.625 M36.863,5.913h-4.466v4.351h4.466c1.771,0,2.605-0.985,2.605-2.176C39.468,6.871,38.686,5.913,36.863,5.913 M37.497,12.776h-5.1v5.285h5.1c2.043,0,2.981-1.322,2.981-2.642S39.552,12.776,37.497,12.776"/>
    <path class="bd" d="M50.933,20.625h-4.309c-0.788,0-1.418-0.587-1.418-1.399V4.747c0-0.778,0.631-1.373,1.418-1.373h4.309c5.842,0,9.067,3.859,9.067,8.624C60,16.766,56.74,20.625,50.933,20.625 M50.752,5.913h-2.708v12.172h2.708c4.132,0,6.436-2.408,6.436-6.086C57.188,8.294,54.924,5.913,50.752,5.913"/>
    <path class="bd" d="M12,0C5.373,0,0,5.372,0,12c0,6.627,5.373,12,12,12c6.628,0,12-5.373,12-12C24,5.372,18.628,0,12,0 M22.485,7.186c0,0-6.642,1.642-6.69,1.654c-0.021,0.005-0.039,0.009-0.059,0.009c-0.034,0-0.063-0.028-0.063-0.065c0-0.013,0.003-0.03,0.013-0.057c0.013-0.032,2.596-6.403,2.596-6.403C20.104,3.51,21.57,5.195,22.485,7.186 M18.212,2.279c0,0-4.581,4.849-4.735,5.011c-0.032,0.033-0.055,0.052-0.083,0.052c-0.029,0-0.06-0.018-0.07-0.072c-0.06-0.318-1.281-6.805-1.281-6.805C14.314,0.474,16.43,1.138,18.212,2.279 M11.959,0.465c0,0-1.22,6.487-1.281,6.805c-0.01,0.054-0.042,0.072-0.07,0.072c-0.028,0-0.051-0.019-0.083-0.052c-0.154-0.162-4.736-5.011-4.736-5.011C7.572,1.138,9.688,0.474,11.959,0.465 M5.718,2.325c0,0,2.583,6.371,2.596,6.403c0.011,0.026,0.013,0.043,0.013,0.057c0,0.037-0.029,0.065-0.063,0.065c-0.019,0-0.039-0.004-0.059-0.009c-0.049-0.012-6.69-1.654-6.69-1.654C2.432,5.195,3.897,3.51,5.718,2.325 M0.467,12c0-1.687,0.362-3.289,1.012-4.733c0,0,5.608,3.954,5.642,3.979c0.034,0.024,0.049,0.046,0.049,0.072c0,0.045-0.035,0.064-0.074,0.077c-0.039,0.013-6.517,2.223-6.517,2.223C0.505,13.089,0.467,12.548,0.467,12 M12,23.534c-5.78,0-10.566-4.253-11.404-9.799l4.299,0.6c0.066,0.009,0.094,0.044,0.109,0.09c0.853,2.483,3.001,4.373,5.663,4.857c-1.014-0.494-1.713-1.535-1.713-2.74c0-1.681,1.364-3.045,3.046-3.045c1.683,0,3.045,1.364,3.045,3.045c0,1.205-0.698,2.246-1.713,2.74c2.663-0.484,4.812-2.374,5.663-4.857c0.016-0.047,0.043-0.082,0.109-0.09l4.299-0.6C22.567,19.281,17.781,23.534,12,23.534 M16.905,11.394c-0.039-0.013-0.074-0.031-0.074-0.077c0-0.025,0.015-0.047,0.049-0.072c0.035-0.024,5.642-3.979,5.642-3.979c0.651,1.444,1.013,3.046,1.013,4.733c0,0.549-0.039,1.09-0.113,1.618C23.421,13.617,16.944,11.407,16.905,11.394"/>
  </g>
</svg>
